# xmcd CD database file
#
# Track frame offsets:
#	150
#	19458
#	36566
#	52791
#	70944
#	89855
#	109757
#	125839
#	148433
#	168665
#	185666
#	202129
#	232663
#	255088
#	273515
#	293254
#	313597
#	334591
#
# Disc length: 4717 seconds
#
# Revision: 0
# Processed by: cddbd v1.5.2PL0 Copyright (c) Steve Scherf et al.
# Submitted via: CDex 1.79
#
DISCID=15126b12
DTITLE=Elmo Hope - Quintet and Here's Hope! and High Hope
DYEAR=1900
DGENRE=Jazz
TTITLE0=Crazy
TTITLE1=Abdullah
TTITLE2=Chips
TTITLE3=Later For You
TTITLE4=Low Tide
TTITLE5=Maybe So
TTITLE6=Hot Sauce
TTITLE7=When The Groove Is Low
TTITLE8=De-Dah
TTITLE9=Abdula
TTITLE10=Freffie
TTITLE11=Stars Over Marakesh
TTITLE12=Chips
TTITLE13=Hot Sauce
TTITLE14=Moe's Bluff
TTITLE15=Maybe So
TTITLE16=Mo Is On
TTITLE17=Crazy
EXTD=
EXTT0=
EXTT1=
EXTT2=
EXTT3=
EXTT4=
EXTT5=
EXTT6=
EXTT7=
EXTT8=
EXTT9=
EXTT10=
EXTT11=
EXTT12=
EXTT13=
EXTT14=
EXTT15=
EXTT16=
EXTT17=
PLAYORDER=
